<svg xmlns="http://www.w3.org/2000/svg" xmlns:xlink="http://www.w3.org/1999/xlink" width="150" zoomAndPan="magnify" viewBox="0 0 112.5 112.499997" height="150" preserveAspectRatio="xMidYMid meet" version="1.0"><defs><g/></defs><path fill="#004aad" d="M 70.605469 99.953125 C 70.703125 99.261719 70.753906 98.566406 70.753906 97.863281 C 70.753906 97.085938 70.695312 96.3125 70.570312 95.542969 C 70.449219 94.773438 70.269531 94.019531 70.027344 93.28125 C 69.785156 92.539062 69.488281 91.824219 69.132812 91.132812 C 68.777344 90.4375 68.371094 89.777344 67.914062 89.148438 C 67.453125 88.519531 66.949219 87.933594 66.394531 87.382812 C 65.84375 86.835938 65.25 86.335938 64.617188 85.878906 C 63.988281 85.425781 63.324219 85.023438 62.628906 84.675781 C 61.933594 84.324219 61.214844 84.03125 60.472656 83.796875 C 59.730469 83.5625 58.972656 83.386719 58.203125 83.269531 C 57.433594 83.152344 56.660156 83.097656 55.882812 83.105469 C 55.105469 83.113281 54.332031 83.179688 53.5625 83.308594 C 52.796875 83.4375 52.042969 83.625 51.304688 83.875 C 50.566406 84.121094 49.855469 84.425781 49.164062 84.789062 C 48.476562 85.148438 47.816406 85.5625 47.195312 86.027344 C 46.570312 86.492188 45.988281 87.003906 45.441406 87.5625 C 44.898438 88.117188 44.402344 88.714844 43.957031 89.351562 L 42.988281 88.859375 C 43.378906 88.296875 43.800781 87.761719 44.257812 87.253906 C 44.714844 86.746094 45.203125 86.273438 45.722656 85.828125 C 46.242188 85.386719 46.785156 84.976562 47.359375 84.601562 C 47.929688 84.230469 48.523438 83.894531 49.136719 83.597656 C 49.753906 83.304688 50.386719 83.046875 51.03125 82.832031 C 51.679688 82.617188 52.339844 82.445312 53.011719 82.316406 C 53.679688 82.1875 54.355469 82.101562 55.039062 82.0625 C 55.71875 82.019531 56.402344 82.023438 57.082031 82.066406 C 57.761719 82.113281 58.4375 82.207031 59.109375 82.339844 C 59.777344 82.472656 60.4375 82.648438 61.082031 82.867188 C 61.730469 83.089844 62.359375 83.347656 62.972656 83.648438 C 63.585938 83.949219 64.175781 84.289062 64.746094 84.664062 C 65.3125 85.042969 65.855469 85.453125 66.371094 85.902344 C 66.886719 86.351562 67.371094 86.828125 67.824219 87.339844 C 68.28125 87.847656 68.699219 88.386719 69.082031 88.949219 C 69.464844 89.515625 69.8125 90.101562 70.121094 90.710938 C 73.828125 89.21875 77.214844 87.191406 80.28125 84.628906 C 81.570312 86.648438 83.253906 88.253906 85.328125 89.449219 C 85.925781 89.792969 86.542969 90.097656 87.183594 90.355469 C 82.328125 94.710938 76.800781 97.910156 70.605469 99.953125 Z M 69.097656 97.863281 C 69.097656 98.722656 69.015625 99.574219 68.847656 100.417969 C 68.679688 101.261719 68.429688 102.082031 68.101562 102.875 C 67.773438 103.671875 67.371094 104.425781 66.890625 105.140625 C 66.414062 105.855469 65.871094 106.515625 65.261719 107.125 C 64.65625 107.734375 63.992188 108.277344 63.277344 108.753906 C 62.5625 109.230469 61.808594 109.636719 61.011719 109.964844 C 60.21875 110.292969 59.398438 110.542969 58.554688 110.710938 C 57.714844 110.878906 56.859375 110.960938 56 110.960938 C 55.140625 110.960938 54.289062 110.878906 53.445312 110.710938 C 52.601562 110.542969 51.785156 110.292969 50.988281 109.964844 C 50.195312 109.636719 49.4375 109.230469 48.722656 108.753906 C 48.007812 108.277344 47.347656 107.734375 46.738281 107.125 C 46.132812 106.515625 45.589844 105.855469 45.109375 105.140625 C 44.632812 104.425781 44.230469 103.671875 43.898438 102.875 C 43.570312 102.082031 43.324219 101.261719 43.15625 100.417969 C 42.988281 99.574219 42.902344 98.722656 42.902344 97.863281 C 42.902344 97.003906 42.988281 96.152344 43.15625 95.308594 C 43.324219 94.464844 43.570312 93.644531 43.898438 92.851562 C 44.230469 92.058594 44.632812 91.300781 45.109375 90.585938 C 45.589844 89.871094 46.132812 89.210938 46.738281 88.601562 C 47.347656 87.992188 48.007812 87.449219 48.722656 86.972656 C 49.4375 86.496094 50.195312 86.09375 50.988281 85.761719 C 51.785156 85.433594 52.601562 85.183594 53.445312 85.015625 C 54.289062 84.847656 55.140625 84.765625 56 84.765625 C 56.859375 84.765625 57.714844 84.847656 58.554688 85.015625 C 59.398438 85.183594 60.21875 85.433594 61.011719 85.761719 C 61.808594 86.09375 62.5625 86.496094 63.277344 86.972656 C 63.992188 87.449219 64.65625 87.992188 65.261719 88.601562 C 65.871094 89.210938 66.414062 89.871094 66.890625 90.585938 C 67.371094 91.300781 67.773438 92.058594 68.101562 92.851562 C 68.429688 93.644531 68.679688 94.464844 68.847656 95.308594 C 69.015625 96.152344 69.097656 97.003906 69.097656 97.863281 Z M 66.363281 97.863281 C 66.363281 97.183594 66.296875 96.511719 66.164062 95.84375 C 66.03125 95.175781 65.832031 94.527344 65.574219 93.898438 C 65.3125 93.269531 64.992188 92.671875 64.617188 92.109375 C 64.238281 91.542969 63.808594 91.019531 63.328125 90.539062 C 62.847656 90.054688 62.324219 89.625 61.757812 89.25 C 61.191406 88.871094 60.59375 88.550781 59.964844 88.292969 C 59.335938 88.03125 58.691406 87.835938 58.023438 87.703125 C 57.355469 87.570312 56.683594 87.503906 56 87.503906 C 55.320312 87.503906 54.648438 87.570312 53.980469 87.703125 C 53.3125 87.835938 52.664062 88.03125 52.035156 88.292969 C 51.40625 88.550781 50.8125 88.871094 50.246094 89.25 C 49.679688 89.625 49.15625 90.054688 48.675781 90.539062 C 48.195312 91.019531 47.765625 91.542969 47.386719 92.105469 C 47.007812 92.671875 46.6875 93.269531 46.429688 93.898438 C 46.167969 94.527344 45.972656 95.175781 45.839844 95.84375 C 45.707031 96.507812 45.640625 97.183594 45.640625 97.863281 C 45.640625 98.542969 45.707031 99.21875 45.839844 99.886719 C 45.972656 100.550781 46.167969 101.199219 46.429688 101.828125 C 46.6875 102.457031 47.007812 103.054688 47.386719 103.621094 C 47.765625 104.1875 48.195312 104.707031 48.675781 105.191406 C 49.15625 105.671875 49.679688 106.101562 50.246094 106.476562 C 50.808594 106.855469 51.40625 107.175781 52.035156 107.4375 C 52.664062 107.695312 53.3125 107.894531 53.980469 108.027344 C 54.648438 108.160156 55.320312 108.226562 56 108.226562 C 56.679688 108.226562 57.355469 108.160156 58.023438 108.027344 C 58.691406 107.894531 59.335938 107.695312 59.964844 107.4375 C 60.59375 107.175781 61.191406 106.855469 61.757812 106.480469 C 62.324219 106.101562 62.847656 105.671875 63.328125 105.191406 C 63.808594 104.710938 64.238281 104.1875 64.617188 103.621094 C 64.992188 103.054688 65.3125 102.457031 65.574219 101.828125 C 65.832031 101.199219 66.03125 100.550781 66.164062 99.886719 C 66.296875 99.21875 66.363281 98.542969 66.363281 97.863281 Z M 66.363281 97.863281 " fill-opacity="1" fill-rule="nonzero"/><path fill="#004aad" d="M 69.011719 22.109375 C 68.625 22.671875 68.203125 23.207031 67.746094 23.714844 C 67.289062 24.222656 66.800781 24.695312 66.28125 25.140625 C 65.761719 25.585938 65.21875 25.992188 64.644531 26.367188 C 64.074219 26.738281 63.480469 27.074219 62.863281 27.371094 C 62.25 27.667969 61.617188 27.921875 60.96875 28.136719 C 60.320312 28.351562 59.664062 28.523438 58.992188 28.652344 C 58.320312 28.78125 57.644531 28.867188 56.964844 28.910156 C 56.28125 28.953125 55.601562 28.949219 54.921875 28.902344 C 54.238281 28.855469 53.5625 28.765625 52.894531 28.632812 C 52.226562 28.496094 51.566406 28.320312 50.921875 28.101562 C 50.273438 27.882812 49.644531 27.621094 49.03125 27.320312 C 48.417969 27.019531 47.828125 26.683594 47.257812 26.304688 C 46.6875 25.925781 46.144531 25.515625 45.628906 25.066406 C 45.113281 24.621094 44.628906 24.140625 44.175781 23.628906 C 43.722656 23.121094 43.304688 22.582031 42.921875 22.019531 C 42.535156 21.453125 42.191406 20.867188 41.882812 20.257812 C 38.175781 21.75 34.785156 23.777344 31.71875 26.335938 C 30.429688 24.320312 28.75 22.714844 26.675781 21.519531 C 26.078125 21.175781 25.457031 20.875 24.816406 20.613281 C 29.675781 16.257812 35.203125 13.058594 41.398438 11.015625 C 41.300781 11.707031 41.25 12.40625 41.25 13.105469 C 41.246094 15.492188 41.792969 17.746094 42.890625 19.867188 L 42.886719 19.867188 C 43.175781 20.425781 43.5 20.96875 43.859375 21.488281 C 44.214844 22.007812 44.605469 22.5 45.027344 22.972656 C 45.449219 23.441406 45.898438 23.882812 46.378906 24.292969 C 46.855469 24.703125 47.359375 25.085938 47.886719 25.433594 C 48.414062 25.777344 48.960938 26.089844 49.527344 26.367188 C 50.09375 26.644531 50.675781 26.882812 51.273438 27.085938 C 51.871094 27.289062 52.480469 27.453125 53.101562 27.578125 C 53.71875 27.699219 54.34375 27.785156 54.972656 27.828125 C 55.601562 27.871094 56.230469 27.875 56.863281 27.839844 C 57.492188 27.800781 58.117188 27.722656 58.738281 27.605469 C 59.355469 27.488281 59.96875 27.332031 60.566406 27.136719 C 61.167969 26.941406 61.753906 26.710938 62.324219 26.4375 C 62.894531 26.167969 63.441406 25.863281 63.972656 25.519531 C 64.503906 25.179688 65.011719 24.804688 65.496094 24.398438 C 65.976562 23.992188 66.433594 23.554688 66.859375 23.089844 C 67.285156 22.625 67.679688 22.136719 68.042969 21.621094 Z M 69.097656 13.105469 C 69.097656 13.964844 69.015625 14.816406 68.847656 15.660156 C 68.679688 16.503906 68.429688 17.324219 68.101562 18.117188 C 67.773438 18.914062 67.371094 19.667969 66.890625 20.382812 C 66.414062 21.097656 65.871094 21.757812 65.261719 22.367188 C 64.65625 22.976562 63.992188 23.519531 63.277344 23.996094 C 62.5625 24.472656 61.808594 24.878906 61.011719 25.207031 C 60.21875 25.535156 59.398438 25.785156 58.554688 25.953125 C 57.714844 26.121094 56.859375 26.203125 56 26.203125 C 55.140625 26.203125 54.289062 26.121094 53.445312 25.953125 C 52.601562 25.785156 51.785156 25.535156 50.988281 25.207031 C 50.195312 24.878906 49.4375 24.472656 48.722656 23.996094 C 48.007812 23.519531 47.347656 22.976562 46.738281 22.367188 C 46.132812 21.757812 45.589844 21.097656 45.109375 20.382812 C 44.632812 19.667969 44.230469 18.914062 43.898438 18.117188 C 43.570312 17.324219 43.324219 16.503906 43.15625 15.660156 C 42.988281 14.816406 42.902344 13.964844 42.902344 13.105469 C 42.902344 12.246094 42.988281 11.394531 43.15625 10.550781 C 43.324219 9.707031 43.570312 8.886719 43.898438 8.09375 C 44.230469 7.296875 44.632812 6.542969 45.109375 5.828125 C 45.589844 5.113281 46.132812 4.453125 46.738281 3.84375 C 47.347656 3.234375 48.007812 2.691406 48.722656 2.214844 C 49.4375 1.738281 50.195312 1.332031 50.988281 1.003906 C 51.785156 0.675781 52.601562 0.425781 53.445312 0.257812 C 54.289062 0.0898438 55.140625 0.0078125 56 0.0078125 C 56.859375 0.0078125 57.714844 0.0898438 58.554688 0.257812 C 59.398438 0.425781 60.21875 0.675781 61.011719 1.003906 C 61.808594 1.332031 62.5625 1.738281 63.277344 2.214844 C 63.992188 2.691406 64.65625 3.234375 65.261719 3.84375 C 65.871094 4.453125 66.414062 5.113281 66.890625 5.828125 C 67.371094 6.542969 67.773438 7.296875 68.101562 8.09375 C 68.429688 8.886719 68.679688 9.707031 68.847656 10.550781 C 69.015625 11.394531 69.097656 12.246094 69.097656 13.105469 Z M 66.363281 13.105469 C 66.363281 12.425781 66.296875 11.75 66.164062 11.085938 C 66.03125 10.417969 65.832031 9.769531 65.574219 9.140625 C 65.3125 8.511719 64.992188 7.914062 64.617188 7.347656 C 64.238281 6.785156 63.808594 6.261719 63.328125 5.777344 C 62.847656 5.296875 62.324219 4.867188 61.757812 4.492188 C 61.191406 4.113281 60.59375 3.792969 59.964844 3.53125 C 59.335938 3.273438 58.691406 3.074219 58.023438 2.945312 C 57.355469 2.8125 56.683594 2.746094 56 2.746094 C 55.320312 2.746094 54.648438 2.8125 53.980469 2.941406 C 53.3125 3.074219 52.664062 3.273438 52.035156 3.53125 C 51.40625 3.792969 50.8125 4.113281 50.246094 4.492188 C 49.679688 4.867188 49.15625 5.296875 48.675781 5.777344 C 48.195312 6.261719 47.765625 6.785156 47.386719 7.347656 C 47.007812 7.914062 46.6875 8.511719 46.429688 9.140625 C 46.167969 9.769531 45.972656 10.417969 45.839844 11.082031 C 45.707031 11.75 45.640625 12.425781 45.640625 13.105469 C 45.640625 13.785156 45.707031 14.460938 45.839844 15.125 C 45.972656 15.792969 46.167969 16.441406 46.429688 17.070312 C 46.6875 17.699219 47.007812 18.296875 47.386719 18.863281 C 47.765625 19.425781 48.195312 19.949219 48.675781 20.433594 C 49.15625 20.914062 49.679688 21.34375 50.246094 21.71875 C 50.808594 22.097656 51.40625 22.417969 52.035156 22.675781 C 52.664062 22.9375 53.3125 23.132812 53.980469 23.265625 C 54.648438 23.398438 55.320312 23.464844 56 23.464844 C 56.679688 23.464844 57.355469 23.398438 58.023438 23.265625 C 58.691406 23.132812 59.335938 22.9375 59.964844 22.675781 C 60.59375 22.417969 61.191406 22.097656 61.757812 21.71875 C 62.324219 21.34375 62.847656 20.914062 63.328125 20.433594 C 63.808594 19.949219 64.238281 19.425781 64.617188 18.863281 C 64.992188 18.296875 65.3125 17.699219 65.574219 17.070312 C 65.832031 16.441406 66.03125 15.792969 66.164062 15.125 C 66.296875 14.460938 66.363281 13.785156 66.363281 13.105469 Z M 66.363281 13.105469 " fill-opacity="1" fill-rule="nonzero"/><path fill="#939492" d="M 33.011719 42.210938 C 32.28125 43.476562 31.386719 44.621094 30.339844 45.640625 C 29.289062 46.660156 28.121094 47.515625 26.835938 48.210938 C 25.550781 48.910156 24.191406 49.417969 22.765625 49.738281 C 21.339844 50.058594 19.894531 50.179688 18.433594 50.097656 C 17.871094 54.054688 17.933594 58.003906 18.621094 61.9375 C 16.226562 62.046875 13.996094 62.699219 11.925781 63.898438 C 11.324219 64.246094 10.753906 64.628906 10.210938 65.054688 C 8.867188 58.671875 8.859375 52.285156 10.1875 45.898438 C 10.738281 46.328125 11.320312 46.71875 11.925781 47.070312 C 13.992188 48.265625 16.214844 48.917969 18.601562 49.03125 C 19.230469 49.0625 19.859375 49.050781 20.488281 49.003906 C 21.117188 48.953125 21.742188 48.859375 22.359375 48.730469 C 22.976562 48.601562 23.582031 48.429688 24.179688 48.222656 C 24.773438 48.015625 25.355469 47.769531 25.917969 47.484375 C 26.484375 47.203125 27.027344 46.886719 27.550781 46.53125 C 28.074219 46.179688 28.574219 45.792969 29.046875 45.378906 C 29.519531 44.960938 29.964844 44.515625 30.382812 44.042969 C 30.800781 43.566406 31.183594 43.070312 31.535156 42.546875 C 31.890625 42.023438 32.207031 41.480469 32.492188 40.914062 C 32.773438 40.351562 33.019531 39.769531 33.226562 39.175781 C 33.4375 38.578125 33.605469 37.972656 33.734375 37.355469 C 33.867188 36.738281 33.957031 36.113281 34.007812 35.484375 C 34.058594 34.855469 34.070312 34.226562 34.039062 33.597656 C 34.007812 32.964844 33.9375 32.339844 33.828125 31.71875 C 33.714844 31.097656 33.566406 30.484375 33.375 29.882812 C 33.1875 29.28125 32.960938 28.695312 32.695312 28.121094 L 33.605469 27.53125 C 34.152344 28.6875 34.554688 29.890625 34.808594 31.144531 C 35.066406 32.398438 35.167969 33.664062 35.117188 34.945312 C 35.0625 36.222656 34.859375 37.476562 34.503906 38.707031 C 34.148438 39.933594 33.652344 41.101562 33.011719 42.210938 Z M 30.644531 40.84375 C 30.214844 41.589844 29.714844 42.285156 29.148438 42.929688 C 28.582031 43.578125 27.957031 44.164062 27.273438 44.6875 C 26.589844 45.210938 25.863281 45.660156 25.09375 46.042969 C 24.320312 46.421875 23.519531 46.722656 22.691406 46.945312 C 21.859375 47.167969 21.015625 47.308594 20.15625 47.363281 C 19.296875 47.421875 18.441406 47.394531 17.589844 47.28125 C 16.738281 47.167969 15.902344 46.972656 15.089844 46.699219 C 14.273438 46.421875 13.496094 46.066406 12.75 45.636719 C 12.003906 45.207031 11.308594 44.710938 10.664062 44.144531 C 10.015625 43.574219 9.433594 42.949219 8.910156 42.269531 C 8.382812 41.585938 7.933594 40.859375 7.550781 40.089844 C 7.171875 39.316406 6.871094 38.515625 6.648438 37.683594 C 6.425781 36.855469 6.285156 36.011719 6.230469 35.152344 C 6.171875 34.292969 6.203125 33.4375 6.3125 32.585938 C 6.425781 31.734375 6.621094 30.898438 6.898438 30.085938 C 7.171875 29.269531 7.527344 28.492188 7.957031 27.746094 C 8.386719 27 8.886719 26.304688 9.453125 25.660156 C 10.019531 25.011719 10.644531 24.425781 11.324219 23.902344 C 12.007812 23.378906 12.734375 22.929688 13.507812 22.546875 C 14.277344 22.167969 15.078125 21.867188 15.910156 21.644531 C 16.742188 21.421875 17.585938 21.28125 18.441406 21.226562 C 19.300781 21.167969 20.15625 21.195312 21.007812 21.308594 C 21.863281 21.421875 22.695312 21.617188 23.511719 21.890625 C 24.324219 22.167969 25.105469 22.523438 25.847656 22.953125 C 26.59375 23.382812 27.289062 23.878906 27.9375 24.449219 C 28.582031 25.015625 29.167969 25.640625 29.691406 26.320312 C 30.214844 27.003906 30.667969 27.730469 31.046875 28.5 C 31.425781 29.273438 31.730469 30.074219 31.953125 30.90625 C 32.175781 31.734375 32.3125 32.582031 32.371094 33.4375 C 32.425781 34.296875 32.398438 35.152344 32.285156 36.003906 C 32.171875 36.855469 31.980469 37.691406 31.703125 38.503906 C 31.425781 39.320312 31.074219 40.097656 30.644531 40.84375 Z M 29.660156 34.296875 C 29.660156 33.613281 29.59375 32.941406 29.460938 32.273438 C 29.328125 31.605469 29.132812 30.957031 28.871094 30.332031 C 28.613281 29.703125 28.292969 29.105469 27.914062 28.539062 C 27.535156 27.972656 27.105469 27.449219 26.625 26.96875 C 26.144531 26.488281 25.621094 26.058594 25.054688 25.679688 C 24.492188 25.300781 23.894531 24.984375 23.265625 24.722656 C 22.636719 24.460938 21.988281 24.265625 21.320312 24.132812 C 20.652344 24 19.980469 23.933594 19.300781 23.933594 C 18.621094 23.933594 17.945312 24 17.277344 24.132812 C 16.609375 24.265625 15.964844 24.460938 15.335938 24.722656 C 14.707031 24.984375 14.109375 25.300781 13.542969 25.679688 C 12.976562 26.058594 12.453125 26.488281 11.972656 26.96875 C 11.492188 27.449219 11.0625 27.972656 10.683594 28.539062 C 10.308594 29.105469 9.988281 29.703125 9.726562 30.328125 C 9.46875 30.957031 9.269531 31.605469 9.136719 32.273438 C 9.003906 32.941406 8.9375 33.613281 8.9375 34.292969 C 8.9375 34.976562 9.003906 35.648438 9.136719 36.316406 C 9.269531 36.984375 9.46875 37.632812 9.726562 38.261719 C 9.988281 38.886719 10.308594 39.484375 10.683594 40.050781 C 11.0625 40.617188 11.492188 41.140625 11.972656 41.621094 C 12.453125 42.101562 12.976562 42.53125 13.542969 42.910156 C 14.109375 43.289062 14.707031 43.605469 15.335938 43.867188 C 15.964844 44.128906 16.609375 44.324219 17.277344 44.457031 C 17.945312 44.589844 18.621094 44.65625 19.300781 44.65625 C 19.980469 44.65625 20.652344 44.589844 21.320312 44.457031 C 21.988281 44.324219 22.636719 44.128906 23.265625 43.867188 C 23.894531 43.605469 24.488281 43.289062 25.054688 42.910156 C 25.621094 42.53125 26.144531 42.101562 26.625 41.621094 C 27.105469 41.140625 27.535156 40.617188 27.914062 40.050781 C 28.292969 39.484375 28.613281 38.886719 28.871094 38.261719 C 29.132812 37.632812 29.328125 36.984375 29.460938 36.316406 C 29.59375 35.648438 29.660156 34.976562 29.660156 34.296875 Z M 29.660156 34.296875 " fill-opacity="1" fill-rule="nonzero"/><path fill="#ffd000" d="M 91.410156 50.066406 C 90.730469 50.007812 90.054688 49.910156 89.386719 49.769531 C 88.71875 49.625 88.0625 49.441406 87.417969 49.214844 C 86.777344 48.988281 86.148438 48.71875 85.539062 48.410156 C 84.929688 48.101562 84.34375 47.753906 83.78125 47.371094 C 83.214844 46.984375 82.679688 46.566406 82.167969 46.113281 C 81.660156 45.660156 81.179688 45.175781 80.734375 44.65625 C 80.285156 44.140625 79.875 43.597656 79.496094 43.03125 C 79.121094 42.460938 78.78125 41.871094 78.480469 41.257812 C 78.183594 40.644531 77.921875 40.011719 77.703125 39.367188 C 77.484375 38.71875 77.308594 38.0625 77.175781 37.390625 C 77.042969 36.722656 76.953125 36.046875 76.90625 35.367188 C 76.859375 34.683594 76.859375 34.003906 76.902344 33.320312 C 76.941406 32.640625 77.027344 31.964844 77.160156 31.292969 C 77.289062 30.625 77.460938 29.964844 77.675781 29.316406 C 77.890625 28.667969 78.148438 28.039062 78.445312 27.421875 C 78.742188 26.808594 79.074219 26.214844 79.449219 25.644531 C 76.304688 23.179688 72.855469 21.257812 69.101562 19.882812 C 70.207031 17.761719 70.757812 15.5 70.753906 13.105469 C 70.753906 12.414062 70.703125 11.726562 70.605469 11.042969 C 76.808594 13.074219 82.34375 16.257812 87.210938 20.601562 C 86.5625 20.863281 85.933594 21.167969 85.328125 21.519531 C 83.257812 22.710938 81.578125 24.308594 80.292969 26.320312 C 79.949219 26.851562 79.644531 27.402344 79.371094 27.972656 C 79.101562 28.542969 78.867188 29.128906 78.671875 29.726562 C 78.476562 30.328125 78.320312 30.9375 78.203125 31.558594 C 78.085938 32.179688 78.007812 32.804688 77.972656 33.433594 C 77.933594 34.0625 77.9375 34.691406 77.980469 35.324219 C 78.023438 35.953125 78.109375 36.578125 78.230469 37.195312 C 78.355469 37.8125 78.519531 38.421875 78.722656 39.019531 C 78.921875 39.617188 79.164062 40.199219 79.4375 40.769531 C 79.714844 41.335938 80.027344 41.882812 80.375 42.410156 C 80.722656 42.9375 81.101562 43.441406 81.511719 43.917969 C 81.925781 44.394531 82.367188 44.847656 82.835938 45.269531 C 83.304688 45.691406 83.800781 46.082031 84.320312 46.4375 C 84.839844 46.796875 85.378906 47.121094 85.941406 47.410156 C 86.5 47.699219 87.078125 47.949219 87.671875 48.164062 C 88.265625 48.378906 88.871094 48.554688 89.484375 48.691406 C 90.101562 48.828125 90.726562 48.925781 91.351562 48.984375 Z M 99.25 45.636719 C 98.507812 46.070312 97.726562 46.421875 96.914062 46.699219 C 96.097656 46.972656 95.265625 47.167969 94.414062 47.28125 C 93.558594 47.394531 92.703125 47.421875 91.847656 47.363281 C 90.988281 47.308594 90.144531 47.167969 89.3125 46.945312 C 88.480469 46.722656 87.679688 46.421875 86.910156 46.042969 C 86.136719 45.660156 85.410156 45.210938 84.730469 44.6875 C 84.046875 44.164062 83.421875 43.578125 82.855469 42.929688 C 82.289062 42.285156 81.789062 41.589844 81.359375 40.84375 C 80.929688 40.097656 80.574219 39.320312 80.300781 38.503906 C 80.023438 37.691406 79.828125 36.855469 79.714844 36.003906 C 79.605469 35.152344 79.574219 34.296875 79.632812 33.4375 C 79.6875 32.582031 79.828125 31.734375 80.050781 30.90625 C 80.273438 30.074219 80.574219 29.273438 80.957031 28.5 C 81.335938 27.730469 81.789062 27.003906 82.3125 26.320312 C 82.835938 25.640625 83.417969 25.015625 84.066406 24.449219 C 84.710938 23.878906 85.410156 23.382812 86.152344 22.953125 C 86.898438 22.523438 87.679688 22.167969 88.492188 21.890625 C 89.304688 21.617188 90.140625 21.421875 90.992188 21.308594 C 91.84375 21.195312 92.699219 21.167969 93.558594 21.226562 C 94.417969 21.28125 95.261719 21.421875 96.09375 21.644531 C 96.921875 21.867188 97.722656 22.167969 98.496094 22.546875 C 99.265625 22.929688 99.992188 23.378906 100.675781 23.902344 C 101.359375 24.425781 101.984375 25.011719 102.550781 25.660156 C 103.117188 26.304688 103.617188 27 104.046875 27.746094 C 104.476562 28.492188 104.828125 29.269531 105.105469 30.085938 C 105.382812 30.898438 105.578125 31.734375 105.6875 32.585938 C 105.800781 33.4375 105.828125 34.292969 105.773438 35.152344 C 105.714844 36.011719 105.578125 36.855469 105.355469 37.683594 C 105.132812 38.515625 104.832031 39.316406 104.449219 40.089844 C 104.070312 40.859375 103.617188 41.585938 103.09375 42.269531 C 102.570312 42.949219 101.984375 43.574219 101.339844 44.144531 C 100.691406 44.710938 99.996094 45.207031 99.25 45.636719 Z M 103.0625 34.296875 C 103.0625 33.613281 102.996094 32.941406 102.863281 32.273438 C 102.730469 31.605469 102.535156 30.957031 102.273438 30.332031 C 102.015625 29.703125 101.695312 29.105469 101.316406 28.539062 C 100.941406 27.972656 100.511719 27.449219 100.027344 26.96875 C 99.546875 26.488281 99.023438 26.058594 98.460938 25.679688 C 97.894531 25.300781 97.296875 24.984375 96.667969 24.722656 C 96.039062 24.460938 95.390625 24.265625 94.722656 24.132812 C 94.058594 24 93.382812 23.933594 92.703125 23.933594 C 92.023438 23.933594 91.347656 24 90.679688 24.132812 C 90.015625 24.265625 89.367188 24.460938 88.738281 24.722656 C 88.109375 24.984375 87.511719 25.300781 86.945312 25.679688 C 86.378906 26.058594 85.855469 26.488281 85.375 26.96875 C 84.894531 27.449219 84.464844 27.972656 84.085938 28.539062 C 83.710938 29.105469 83.390625 29.703125 83.128906 30.328125 C 82.871094 30.957031 82.671875 31.605469 82.539062 32.273438 C 82.40625 32.941406 82.339844 33.613281 82.339844 34.292969 C 82.339844 34.976562 82.40625 35.648438 82.539062 36.316406 C 82.671875 36.984375 82.871094 37.632812 83.128906 38.261719 C 83.390625 38.886719 83.710938 39.484375 84.085938 40.050781 C 84.464844 40.617188 84.894531 41.140625 85.375 41.621094 C 85.855469 42.101562 86.378906 42.53125 86.945312 42.910156 C 87.511719 43.289062 88.109375 43.605469 88.738281 43.867188 C 89.367188 44.128906 90.015625 44.324219 90.679688 44.457031 C 91.347656 44.589844 92.023438 44.65625 92.703125 44.65625 C 93.382812 44.65625 94.054688 44.589844 94.722656 44.457031 C 95.390625 44.324219 96.039062 44.128906 96.667969 43.867188 C 97.296875 43.605469 97.894531 43.289062 98.457031 42.910156 C 99.023438 42.53125 99.546875 42.101562 100.027344 41.621094 C 100.511719 41.140625 100.9375 40.617188 101.316406 40.050781 C 101.695312 39.484375 102.015625 38.886719 102.273438 38.261719 C 102.535156 37.632812 102.730469 36.984375 102.863281 36.316406 C 102.996094 35.648438 103.0625 34.976562 103.0625 34.296875 Z M 103.0625 34.296875 " fill-opacity="1" fill-rule="nonzero"/><path fill="#939492" d="M 101.8125 65.074219 C 100.609375 64.128906 99.289062 63.386719 97.851562 62.851562 C 96.417969 62.316406 94.933594 62.011719 93.402344 61.9375 C 92.773438 61.910156 92.140625 61.917969 91.511719 61.96875 C 90.882812 62.019531 90.261719 62.109375 89.644531 62.238281 C 89.027344 62.371094 88.417969 62.539062 87.824219 62.746094 C 87.226562 62.957031 86.648438 63.203125 86.082031 63.484375 C 85.519531 63.765625 84.976562 64.085938 84.453125 64.4375 C 83.929688 64.789062 83.429688 65.175781 82.957031 65.59375 C 82.480469 66.007812 82.035156 66.453125 81.621094 66.929688 C 81.203125 67.402344 80.816406 67.902344 80.464844 68.425781 C 80.113281 68.949219 79.792969 69.492188 79.511719 70.054688 C 79.226562 70.621094 78.984375 71.199219 78.773438 71.796875 C 78.566406 72.390625 78.394531 72.996094 78.265625 73.613281 C 78.136719 74.234375 78.042969 74.855469 77.996094 75.484375 C 77.945312 76.113281 77.933594 76.742188 77.964844 77.375 C 77.996094 78.003906 78.066406 78.628906 78.175781 79.25 C 78.285156 79.875 78.4375 80.484375 78.625 81.085938 C 78.816406 81.6875 79.042969 82.277344 79.308594 82.847656 L 78.398438 83.441406 C 78.105469 82.824219 77.855469 82.191406 77.644531 81.539062 C 77.433594 80.890625 77.265625 80.230469 77.140625 79.558594 C 77.015625 78.886719 76.933594 78.210938 76.898438 77.53125 C 76.859375 76.847656 76.867188 76.167969 76.917969 75.484375 C 76.96875 74.804688 77.0625 74.128906 77.199219 73.460938 C 77.339844 72.792969 77.519531 72.136719 77.742188 71.492188 C 77.964844 70.84375 78.230469 70.21875 78.535156 69.605469 C 78.839844 68.996094 79.183594 68.40625 79.5625 67.839844 C 79.945312 67.273438 80.359375 66.734375 80.8125 66.21875 C 81.261719 65.707031 81.742188 65.226562 82.257812 64.777344 C 82.769531 64.324219 83.308594 63.910156 83.875 63.53125 C 84.445312 63.148438 85.03125 62.808594 85.644531 62.503906 C 86.253906 62.199219 86.882812 61.933594 87.527344 61.710938 C 88.175781 61.488281 88.832031 61.308594 89.5 61.171875 C 90.167969 61.035156 90.84375 60.941406 91.523438 60.890625 C 92.207031 60.839844 92.886719 60.832031 93.570312 60.871094 C 94.132812 56.914062 94.070312 52.96875 93.382812 49.03125 C 95.773438 48.921875 98.007812 48.269531 100.078125 47.070312 C 100.675781 46.722656 101.246094 46.339844 101.792969 45.914062 C 103.136719 52.296875 103.140625 58.6875 101.8125 65.074219 Z M 104.046875 83.222656 C 103.617188 83.96875 103.117188 84.664062 102.550781 85.308594 C 101.984375 85.957031 101.359375 86.542969 100.675781 87.066406 C 99.992188 87.589844 99.265625 88.042969 98.496094 88.421875 C 97.722656 88.800781 96.921875 89.101562 96.09375 89.324219 C 95.261719 89.546875 94.417969 89.6875 93.558594 89.746094 C 92.699219 89.800781 91.84375 89.773438 90.992188 89.660156 C 90.140625 89.546875 89.308594 89.355469 88.492188 89.078125 C 87.679688 88.800781 86.898438 88.449219 86.152344 88.015625 C 85.410156 87.585938 84.714844 87.089844 84.066406 86.523438 C 83.417969 85.953125 82.835938 85.332031 82.3125 84.648438 C 81.789062 83.964844 81.335938 83.238281 80.957031 82.46875 C 80.574219 81.695312 80.273438 80.894531 80.050781 80.0625 C 79.828125 79.234375 79.6875 78.390625 79.632812 77.53125 C 79.578125 76.671875 79.605469 75.816406 79.714844 74.964844 C 79.828125 74.113281 80.023438 73.277344 80.300781 72.464844 C 80.574219 71.648438 80.929688 70.871094 81.359375 70.125 C 81.789062 69.378906 82.289062 68.683594 82.855469 68.039062 C 83.421875 67.390625 84.046875 66.804688 84.730469 66.28125 C 85.410156 65.757812 86.136719 65.308594 86.910156 64.925781 C 87.679688 64.546875 88.480469 64.246094 89.3125 64.023438 C 90.144531 63.800781 90.988281 63.660156 91.847656 63.605469 C 92.703125 63.546875 93.558594 63.574219 94.414062 63.6875 C 95.265625 63.800781 96.097656 63.996094 96.914062 64.269531 C 97.726562 64.546875 98.507812 64.902344 99.25 65.332031 C 99.996094 65.761719 100.691406 66.257812 101.339844 66.828125 C 101.984375 67.394531 102.570312 68.019531 103.09375 68.699219 C 103.617188 69.382812 104.070312 70.109375 104.449219 70.882812 C 104.832031 71.652344 105.132812 72.453125 105.355469 73.285156 C 105.578125 74.113281 105.714844 74.960938 105.773438 75.816406 C 105.828125 76.675781 105.800781 77.53125 105.6875 78.382812 C 105.578125 79.238281 105.382812 80.070312 105.105469 80.882812 C 104.828125 81.699219 104.476562 82.476562 104.046875 83.222656 Z M 103.0625 76.675781 C 103.0625 75.992188 102.996094 75.320312 102.863281 74.652344 C 102.730469 73.984375 102.535156 73.335938 102.273438 72.710938 C 102.015625 72.082031 101.695312 71.484375 101.316406 70.917969 C 100.941406 70.351562 100.511719 69.828125 100.027344 69.347656 C 99.546875 68.867188 99.023438 68.4375 98.460938 68.058594 C 97.894531 67.679688 97.296875 67.363281 96.667969 67.101562 C 96.039062 66.839844 95.390625 66.644531 94.722656 66.511719 C 94.058594 66.378906 93.382812 66.3125 92.703125 66.3125 C 92.023438 66.3125 91.347656 66.378906 90.679688 66.511719 C 90.015625 66.644531 89.367188 66.839844 88.738281 67.101562 C 88.109375 67.363281 87.511719 67.679688 86.945312 68.058594 C 86.378906 68.4375 85.855469 68.867188 85.375 69.347656 C 84.894531 69.828125 84.464844 70.351562 84.085938 70.917969 C 83.710938 71.484375 83.390625 72.082031 83.128906 72.710938 C 82.871094 73.335938 82.671875 73.984375 82.539062 74.652344 C 82.40625 75.320312 82.339844 75.992188 82.339844 76.675781 C 82.339844 77.355469 82.40625 78.027344 82.539062 78.695312 C 82.671875 79.363281 82.871094 80.011719 83.128906 80.640625 C 83.390625 81.265625 83.710938 81.863281 84.085938 82.429688 C 84.464844 82.996094 84.894531 83.519531 85.375 84 C 85.855469 84.480469 86.378906 84.910156 86.945312 85.289062 C 87.511719 85.667969 88.109375 85.984375 88.738281 86.246094 C 89.367188 86.507812 90.015625 86.703125 90.679688 86.835938 C 91.347656 86.96875 92.023438 87.035156 92.703125 87.035156 C 93.382812 87.035156 94.054688 86.96875 94.722656 86.835938 C 95.390625 86.703125 96.039062 86.507812 96.667969 86.246094 C 97.296875 85.984375 97.894531 85.667969 98.457031 85.289062 C 99.023438 84.910156 99.546875 84.480469 100.027344 84 C 100.511719 83.519531 100.9375 82.996094 101.316406 82.429688 C 101.695312 81.863281 102.015625 81.269531 102.273438 80.640625 C 102.535156 80.011719 102.730469 79.363281 102.863281 78.695312 C 102.996094 78.027344 103.0625 77.355469 103.0625 76.675781 Z M 103.0625 76.675781 " fill-opacity="1" fill-rule="nonzero"/><path fill="#ffd000" d="M 41.25 97.863281 C 41.25 98.554688 41.296875 99.242188 41.398438 99.925781 C 35.195312 97.898438 29.660156 94.710938 24.792969 90.363281 C 25.441406 90.105469 26.070312 89.796875 26.675781 89.449219 C 28.746094 88.257812 30.421875 86.65625 31.707031 84.648438 L 31.710938 84.648438 C 32.054688 84.117188 32.359375 83.566406 32.628906 83 C 32.902344 82.429688 33.136719 81.84375 33.332031 81.242188 C 33.527344 80.644531 33.683594 80.03125 33.800781 79.414062 C 33.917969 78.792969 33.996094 78.167969 34.03125 77.539062 C 34.070312 76.90625 34.066406 76.277344 34.023438 75.648438 C 33.980469 75.019531 33.894531 74.394531 33.773438 73.773438 C 33.648438 73.15625 33.484375 72.546875 33.28125 71.949219 C 33.082031 71.351562 32.839844 70.769531 32.566406 70.203125 C 32.289062 69.636719 31.976562 69.085938 31.628906 68.5625 C 31.28125 68.035156 30.902344 67.53125 30.492188 67.050781 C 30.078125 66.574219 29.636719 66.125 29.167969 65.703125 C 28.699219 65.28125 28.203125 64.890625 27.683594 64.53125 C 27.164062 64.171875 26.625 63.851562 26.0625 63.5625 C 25.503906 63.273438 24.925781 63.019531 24.332031 62.804688 C 23.738281 62.589844 23.132812 62.414062 22.515625 62.277344 C 21.902344 62.140625 21.277344 62.042969 20.648438 61.988281 L 20.59375 60.902344 C 21.273438 60.957031 21.949219 61.058594 22.617188 61.199219 C 23.285156 61.34375 23.9375 61.527344 24.582031 61.753906 C 25.226562 61.980469 25.851562 62.25 26.460938 62.558594 C 27.070312 62.867188 27.65625 63.214844 28.222656 63.597656 C 28.785156 63.980469 29.324219 64.402344 29.832031 64.855469 C 30.34375 65.308594 30.820312 65.792969 31.269531 66.308594 C 31.714844 66.828125 32.128906 67.367188 32.503906 67.9375 C 32.882812 68.507812 33.21875 69.097656 33.519531 69.710938 C 33.820312 70.324219 34.082031 70.957031 34.300781 71.601562 C 34.519531 72.25 34.695312 72.90625 34.828125 73.578125 C 34.960938 74.246094 35.050781 74.921875 35.097656 75.601562 C 35.144531 76.285156 35.144531 76.964844 35.101562 77.648438 C 35.058594 78.328125 34.972656 79.003906 34.84375 79.675781 C 34.714844 80.34375 34.542969 81.003906 34.328125 81.652344 C 34.113281 82.300781 33.855469 82.929688 33.558594 83.546875 C 33.261719 84.160156 32.925781 84.753906 32.554688 85.324219 C 35.699219 87.792969 39.148438 89.710938 42.898438 91.085938 C 41.796875 93.210938 41.246094 95.472656 41.25 97.863281 Z M 25.847656 88.015625 C 25.105469 88.449219 24.324219 88.800781 23.511719 89.078125 C 22.695312 89.355469 21.863281 89.546875 21.007812 89.660156 C 20.15625 89.773438 19.300781 89.800781 18.441406 89.746094 C 17.585938 89.6875 16.742188 89.546875 15.910156 89.324219 C 15.078125 89.101562 14.277344 88.800781 13.507812 88.421875 C 12.734375 88.042969 12.007812 87.589844 11.324219 87.066406 C 10.644531 86.542969 10.019531 85.957031 9.453125 85.308594 C 8.886719 84.664062 8.386719 83.96875 7.957031 83.222656 C 7.527344 82.476562 7.171875 81.699219 6.898438 80.882812 C 6.621094 80.070312 6.425781 79.238281 6.3125 78.382812 C 6.203125 77.53125 6.171875 76.675781 6.230469 75.816406 C 6.285156 74.960938 6.425781 74.113281 6.648438 73.285156 C 6.871094 72.453125 7.171875 71.652344 7.550781 70.882812 C 7.933594 70.109375 8.382812 69.382812 8.90625 68.699219 C 9.433594 68.019531 10.015625 67.394531 10.664062 66.828125 C 11.308594 66.257812 12.003906 65.761719 12.75 65.332031 C 13.496094 64.902344 14.273438 64.546875 15.089844 64.269531 C 15.902344 63.996094 16.738281 63.800781 17.589844 63.6875 C 18.441406 63.574219 19.296875 63.546875 20.15625 63.605469 C 21.015625 63.660156 21.859375 63.800781 22.691406 64.023438 C 23.519531 64.246094 24.320312 64.546875 25.09375 64.925781 C 25.863281 65.308594 26.589844 65.757812 27.273438 66.28125 C 27.957031 66.804688 28.582031 67.390625 29.148438 68.039062 C 29.714844 68.683594 30.214844 69.378906 30.644531 70.125 C 31.074219 70.871094 31.425781 71.648438 31.703125 72.464844 C 31.980469 73.277344 32.171875 74.113281 32.285156 74.964844 C 32.398438 75.816406 32.425781 76.671875 32.371094 77.53125 C 32.3125 78.390625 32.175781 79.234375 31.953125 80.0625 C 31.730469 80.894531 31.425781 81.695312 31.046875 82.46875 C 30.667969 83.238281 30.214844 83.964844 29.691406 84.648438 C 29.167969 85.332031 28.582031 85.953125 27.9375 86.523438 C 27.289062 87.089844 26.59375 87.585938 25.847656 88.015625 Z M 29.660156 76.675781 C 29.660156 75.992188 29.59375 75.320312 29.460938 74.652344 C 29.328125 73.984375 29.132812 73.339844 28.871094 72.710938 C 28.613281 72.082031 28.292969 71.484375 27.914062 70.917969 C 27.535156 70.351562 27.105469 69.828125 26.625 69.347656 C 26.144531 68.867188 25.621094 68.4375 25.054688 68.058594 C 24.492188 67.679688 23.894531 67.363281 23.265625 67.101562 C 22.636719 66.839844 21.988281 66.644531 21.320312 66.511719 C 20.652344 66.378906 19.980469 66.3125 19.300781 66.3125 C 18.621094 66.3125 17.945312 66.378906 17.277344 66.511719 C 16.609375 66.644531 15.964844 66.839844 15.335938 67.101562 C 14.707031 67.363281 14.109375 67.679688 13.542969 68.058594 C 12.976562 68.4375 12.453125 68.867188 11.972656 69.347656 C 11.492188 69.828125 11.0625 70.351562 10.683594 70.917969 C 10.308594 71.484375 9.988281 72.082031 9.726562 72.710938 C 9.46875 73.335938 9.269531 73.984375 9.136719 74.652344 C 9.003906 75.320312 8.9375 75.992188 8.9375 76.675781 C 8.9375 77.355469 9.003906 78.027344 9.136719 78.695312 C 9.269531 79.363281 9.46875 80.011719 9.726562 80.640625 C 9.988281 81.265625 10.308594 81.863281 10.683594 82.429688 C 11.0625 82.996094 11.492188 83.519531 11.972656 84 C 12.453125 84.480469 12.976562 84.910156 13.542969 85.289062 C 14.109375 85.667969 14.707031 85.984375 15.335938 86.246094 C 15.964844 86.507812 16.609375 86.703125 17.277344 86.835938 C 17.945312 86.96875 18.621094 87.035156 19.300781 87.035156 C 19.980469 87.035156 20.652344 86.96875 21.320312 86.835938 C 21.988281 86.703125 22.636719 86.507812 23.265625 86.246094 C 23.894531 85.984375 24.488281 85.667969 25.054688 85.289062 C 25.621094 84.910156 26.144531 84.480469 26.625 84 C 27.105469 83.519531 27.535156 82.996094 27.914062 82.429688 C 28.292969 81.863281 28.613281 81.269531 28.871094 80.640625 C 29.132812 80.011719 29.328125 79.363281 29.460938 78.695312 C 29.59375 78.027344 29.660156 77.355469 29.660156 76.675781 Z M 29.660156 76.675781 " fill-opacity="1" fill-rule="nonzero"/><g fill="#000000" fill-opacity="1"><g transform="translate(49.716465, 19.062644)"><g><path d="M 12.359375 0 L 9.671875 0 L 8.703125 -2.96875 L 3.78125 -2.96875 L 2.8125 0 L 0.1875 0 L 4.640625 -12.875 L 7.90625 -12.875 Z M 6.125 -10.1875 L 4.46875 -5.109375 L 8 -5.109375 L 6.34375 -10.1875 Z M 6.125 -10.1875 "/></g></g></g><g fill="#000000" fill-opacity="1"><g transform="translate(86.647576, 41.002366)"><g><path d="M 1.671875 0 L 1.671875 -12.875 L 7.171875 -12.875 C 7.960938 -12.875 8.628906 -12.75 9.171875 -12.5 C 9.722656 -12.25 10.140625 -11.890625 10.421875 -11.421875 C 10.703125 -10.960938 10.84375 -10.421875 10.84375 -9.796875 C 10.84375 -9.222656 10.703125 -8.71875 10.421875 -8.28125 C 10.148438 -7.851562 9.757812 -7.507812 9.25 -7.25 L 9.25 -7.0625 C 10.050781 -6.851562 10.671875 -6.46875 11.109375 -5.90625 C 11.554688 -5.351562 11.78125 -4.671875 11.78125 -3.859375 C 11.78125 -2.617188 11.40625 -1.664062 10.65625 -1 C 9.914062 -0.332031 8.816406 0 7.359375 0 Z M 6.640625 -7.734375 C 7.828125 -7.734375 8.421875 -8.269531 8.421875 -9.34375 C 8.421875 -9.882812 8.269531 -10.289062 7.96875 -10.5625 C 7.675781 -10.832031 7.234375 -10.96875 6.640625 -10.96875 L 4.21875 -10.96875 L 4.21875 -7.734375 Z M 7.109375 -2.015625 C 8.503906 -2.015625 9.203125 -2.648438 9.203125 -3.921875 C 9.203125 -5.203125 8.503906 -5.84375 7.109375 -5.84375 L 4.21875 -5.84375 L 4.21875 -2.015625 Z M 7.109375 -2.015625 "/></g></g></g><g fill="#000000" fill-opacity="1"><g transform="translate(85.872719, 83.327931)"><g><path d="M 7.03125 0.1875 C 5.84375 0.1875 4.796875 -0.0546875 3.890625 -0.546875 C 2.992188 -1.046875 2.289062 -1.789062 1.78125 -2.78125 C 1.269531 -3.769531 1.015625 -4.988281 1.015625 -6.4375 C 1.015625 -7.882812 1.269531 -9.101562 1.78125 -10.09375 C 2.289062 -11.082031 2.992188 -11.820312 3.890625 -12.3125 C 4.796875 -12.8125 5.84375 -13.0625 7.03125 -13.0625 C 8.269531 -13.0625 9.320312 -12.816406 10.1875 -12.328125 C 11.050781 -11.847656 11.671875 -11.109375 12.046875 -10.109375 L 10.1875 -8.984375 L 9.96875 -8.984375 C 9.6875 -9.660156 9.3125 -10.140625 8.84375 -10.421875 C 8.375 -10.710938 7.769531 -10.859375 7.03125 -10.859375 C 5.96875 -10.859375 5.132812 -10.503906 4.53125 -9.796875 C 3.9375 -9.097656 3.640625 -7.976562 3.640625 -6.4375 C 3.640625 -4.90625 3.9375 -3.785156 4.53125 -3.078125 C 5.132812 -2.367188 5.96875 -2.015625 7.03125 -2.015625 C 8.707031 -2.015625 9.734375 -2.828125 10.109375 -4.453125 L 10.328125 -4.453125 L 12.203125 -3.484375 C 11.847656 -2.253906 11.242188 -1.332031 10.390625 -0.71875 C 9.546875 -0.113281 8.425781 0.1875 7.03125 0.1875 Z M 7.03125 0.1875 "/></g></g></g><g fill="#000000" fill-opacity="1"><g transform="translate(49.716465, 104.520963)"><g><path d="M 6.296875 -12.875 C 8.390625 -12.875 9.984375 -12.332031 11.078125 -11.25 C 12.179688 -10.164062 12.734375 -8.5625 12.734375 -6.4375 C 12.734375 -4.3125 12.179688 -2.707031 11.078125 -1.625 C 9.984375 -0.539062 8.390625 0 6.296875 0 L 1.671875 0 L 1.671875 -12.875 Z M 6.15625 -2.140625 C 7.476562 -2.140625 8.46875 -2.476562 9.125 -3.15625 C 9.78125 -3.832031 10.109375 -4.925781 10.109375 -6.4375 C 10.109375 -7.945312 9.78125 -9.039062 9.125 -9.71875 C 8.46875 -10.394531 7.476562 -10.734375 6.15625 -10.734375 L 4.21875 -10.734375 L 4.21875 -2.140625 Z M 6.15625 -2.140625 "/></g></g></g><g fill="#000000" fill-opacity="1"><g transform="translate(13.676267, 83.327931)"><g><path d="M 4.21875 -5.65625 L 4.21875 -2.125 L 10.359375 -2.125 L 10.359375 0 L 1.671875 0 L 1.671875 -12.875 L 10.21875 -12.875 L 10.21875 -10.734375 L 4.21875 -10.734375 L 4.21875 -7.734375 L 9.46875 -7.734375 L 9.46875 -5.65625 Z M 4.21875 -5.65625 "/></g></g></g><g fill="#000000" fill-opacity="1"><g transform="translate(14.324458, 41.002366)"><g><path d="M 9.828125 -12.875 L 9.828125 -10.734375 L 4.21875 -10.734375 L 4.21875 -7.328125 L 9.3125 -7.328125 L 9.3125 -5.234375 L 4.21875 -5.234375 L 4.21875 0 L 1.671875 0 L 1.671875 -12.875 Z M 9.828125 -12.875 "/></g></g></g></svg>